HIERARCHY
ROOT Hips
{
	OFFSET 0.000000 83.214638 0.000000
	CHANNELS 6 Xposition Yposition Zposition Xrotation Yrotation Zrotation
	JOINT Pelvis
	{
		OFFSET 0.000000 0.000000 0.000000
		CHANNELS 3 Xrotation Yrotation Zrotation
		JOINT LeftUpLeg
		{
			OFFSET 8.479700 -4.795502 -0.379100
			CHANNELS 3 Xrotation Yrotation Zrotation
			JOINT LeftLeg
			{
				OFFSET 0.024144 -32.555107 0.112900
				CHANNELS 3 Xrotation Yrotation Zrotation
				JOINT LeftFoot
				{
					OFFSET -0.024144 -32.638630 -3.012600
					CHANNELS 3 Xrotation Yrotation Zrotation
					JOINT LeftToeBase
					{
						OFFSET 0.970200 -13.225400 11.864200
						CHANNELS 3 Xrotation Yrotation Zrotation
						End Site
						{
							OFFSET 0.000000 12.319262 0.000000
						}
					}
					JOINT LFootTongue
					{
						OFFSET 1.142400 -1.059800 6.665200
						CHANNELS 3 Xrotation Yrotation Zrotation
						End Site
						{
							OFFSET 0.000000 12.319262 0.000000
						}
					}
				}
				JOINT LeftPantLeg
				{
					OFFSET 0.918482 -16.533964 -2.284700
					CHANNELS 3 Xrotation Yrotation Zrotation
					End Site
					{
						OFFSET 0.350399 24.744368 0.000000
					}
				}
			}
		}
		JOINT RightUpLeg
		{
			OFFSET -8.479700 -4.795502 -0.379100
			CHANNELS 3 Xrotation Yrotation Zrotation
			JOINT RightLeg
			{
				OFFSET -0.023144 -32.555092 0.112900
				CHANNELS 3 Xrotation Yrotation Zrotation
				JOINT RightFoot
				{
					OFFSET 0.023144 -32.638641 -3.012700
					CHANNELS 3 Xrotation Yrotation Zrotation
					JOINT RightToeBase
					{
						OFFSET -0.970200 -13.225400 11.864200
						CHANNELS 3 Xrotation Yrotation Zrotation
						End Site
						{
							OFFSET 0.000000 12.319244 0.000000
						}
					}
					JOINT RFootTongue
					{
						OFFSET -1.142200 -1.059800 6.665200
						CHANNELS 3 Xrotation Yrotation Zrotation
						End Site
						{
							OFFSET 0.000000 12.319243 0.000000
						}
					}
				}
				JOINT RightPantLeg
				{
					OFFSET -0.919482 -16.533978 -2.284800
					CHANNELS 3 Xrotation Yrotation Zrotation
					End Site
					{
						OFFSET -0.350400 24.744419 0.000000
					}
				}
			}
		}
	}
	JOINT Spine
	{
		OFFSET 0.000000 7.722000 1.166200
		CHANNELS 3 Xrotation Yrotation Zrotation
		JOINT Spine1
		{
			OFFSET 0.000000 12.024101 0.248800
			CHANNELS 3 Xrotation Yrotation Zrotation
			JOINT Spine2
			{
				OFFSET 0.000000 11.502998 -0.491200
				CHANNELS 3 Xrotation Yrotation Zrotation
				JOINT Neck
				{
					OFFSET 0.000000 18.430702 -3.123100
					CHANNELS 3 Xrotation Yrotation Zrotation
					JOINT Head
					{
						OFFSET 0.000000 9.051102 1.034000
						CHANNELS 3 Xrotation Yrotation Zrotation
						JOINT HairB
						{
							OFFSET 0.208400 24.786102 24.822300
							CHANNELS 3 Xrotation Yrotation Zrotation
							End Site
							{
								OFFSET 0.000000 32.263779 0.000000
							}
						}
						JOINT HairA
						{
							OFFSET -7.081100 24.428299 23.196600
							CHANNELS 3 Xrotation Yrotation Zrotation
							End Site
							{
								OFFSET 0.000000 32.263779 0.000000
							}
						}
						JOINT Hat
						{
							OFFSET 16.728800 15.048294 -15.439601
							CHANNELS 3 Xrotation Yrotation Zrotation
							End Site
							{
								OFFSET 0.000000 32.263779 0.000000
							}
						}
					}
				}
				JOINT LeftShoulder
				{
					OFFSET 6.197800 13.665199 -4.064700
					CHANNELS 3 Xrotation Yrotation Zrotation
					JOINT LeftArm
					{
						OFFSET 7.778100 -0.187103 -1.709300
						CHANNELS 3 Xrotation Yrotation Zrotation
						JOINT LeftForeArm
						{
							OFFSET 22.049376 0.000000 0.000000
							CHANNELS 3 Xrotation Yrotation Zrotation
							JOINT LeftHand
							{
								OFFSET 23.009392 0.000000 0.000000
								CHANNELS 3 Xrotation Yrotation Zrotation
								JOINT LeftHandThumb1
								{
									OFFSET 3.507191 -2.063065 3.133727
									CHANNELS 3 Xrotation Yrotation Zrotation
									JOINT LeftHandThumb2
									{
										OFFSET 3.101337 -1.790558 1.790558
										CHANNELS 3 Xrotation Yrotation Zrotation
										JOINT LeftHandThumb3
										{
											OFFSET 3.058640 -1.765907 1.765906
											CHANNELS 3 Xrotation Yrotation Zrotation
											End Site
											{
												OFFSET -0.415260 3.926476 -0.049563
											}
										}
									}
								}
								JOINT LeftHandIndex1
								{
									OFFSET 11.334419 -0.901459 3.706815
									CHANNELS 3 Xrotation Yrotation Zrotation
									JOINT LeftHandIndex2
									{
										OFFSET 3.283112 0.000000 0.000000
										CHANNELS 3 Xrotation Yrotation Zrotation
										JOINT LeftHandIndex3
										{
											OFFSET 3.323853 0.000000 0.000000
											CHANNELS 3 Xrotation Yrotation Zrotation
											End Site
											{
												OFFSET -1.135597 3.097809 0.402452
											}
										}
									}
								}
								JOINT LeftHandMiddle1
								{
									OFFSET 11.335861 0.000000 0.000000
									CHANNELS 3 Xrotation Yrotation Zrotation
									JOINT LeftHandMiddle2
									{
										OFFSET 3.410492 0.000000 0.000000
										CHANNELS 3 Xrotation Yrotation Zrotation
										JOINT LeftHandMiddle3
										{
											OFFSET 3.312172 0.000000 0.000000
											CHANNELS 3 Xrotation Yrotation Zrotation
											End Site
											{
												OFFSET -1.150200 3.080154 0.400270
											}
										}
									}
								}
								JOINT LeftHandRing1
								{
									OFFSET 11.514786 -0.013176 -3.003090
									CHANNELS 3 Xrotation Yrotation Zrotation
									JOINT LeftHandRing2
									{
										OFFSET 3.053307 0.000000 0.000000
										CHANNELS 3 Xrotation Yrotation Zrotation
										JOINT LeftHandRing3
										{
											OFFSET 3.295807 0.000000 0.000000
											CHANNELS 3 Xrotation Yrotation Zrotation
											End Site
											{
												OFFSET -1.281006 3.013344 0.375733
											}
										}
									}
								}
								JOINT LeftHandPinky1
								{
									OFFSET 10.518692 -0.960396 -5.730441
									CHANNELS 3 Xrotation Yrotation Zrotation
									JOINT LeftHandPinky2
									{
										OFFSET 2.861649 0.000000 0.000000
										CHANNELS 3 Xrotation Yrotation Zrotation
										JOINT LeftHandPinky3
										{
											OFFSET 2.863380 0.000000 0.000000
											CHANNELS 3 Xrotation Yrotation Zrotation
											End Site
											{
												OFFSET -0.843597 2.711159 0.369971
											}
										}
									}
								}
							}
							JOINT LSleeve
							{
								OFFSET 6.676277 -0.344902 -1.011730
								CHANNELS 3 Xrotation Yrotation Zrotation
								End Site
								{
									OFFSET 0.000000 14.885353 0.000000
								}
							}
						}
					}
				}
				JOINT RightShoulder
				{
					OFFSET -6.197800 13.665199 -4.064700
					CHANNELS 3 Xrotation Yrotation Zrotation
					JOINT RightArm
					{
						OFFSET -7.778100 -0.187103 -1.709300
						CHANNELS 3 Xrotation Yrotation Zrotation
						JOINT RightForeArm
						{
							OFFSET -22.049376 0.000000 0.000000
							CHANNELS 3 Xrotation Yrotation Zrotation
							JOINT RightHand
							{
								OFFSET -23.009392 0.000000 0.000000
								CHANNELS 3 Xrotation Yrotation Zrotation
								JOINT RightHandThumb1
								{
									OFFSET -3.507191 -2.063065 3.133727
									CHANNELS 3 Xrotation Yrotation Zrotation
									JOINT RightHandThumb2
									{
										OFFSET -3.101337 -1.790558 1.790558
										CHANNELS 3 Xrotation Yrotation Zrotation
										JOINT RightHandThumb3
										{
											OFFSET -3.058640 -1.765907 1.765906
											CHANNELS 3 Xrotation Yrotation Zrotation
											End Site
											{
												OFFSET 0.415260 3.926476 -0.049563
											}
										}
									}
								}
								JOINT RightHandIndex1
								{
									OFFSET -11.334419 -0.901459 3.706815
									CHANNELS 3 Xrotation Yrotation Zrotation
									JOINT RightHandIndex2
									{
										OFFSET -3.283112 0.000000 0.000000
										CHANNELS 3 Xrotation Yrotation Zrotation
										JOINT RightHandIndex3
										{
											OFFSET -3.323853 0.000000 0.000000
											CHANNELS 3 Xrotation Yrotation Zrotation
											End Site
											{
												OFFSET 1.135597 3.097809 0.402452
											}
										}
									}
								}
								JOINT RightHandMiddle1
								{
									OFFSET -11.335861 0.000000 0.000000
									CHANNELS 3 Xrotation Yrotation Zrotation
									JOINT RightHandMiddle2
									{
										OFFSET -3.410492 0.000000 0.000000
										CHANNELS 3 Xrotation Yrotation Zrotation
										JOINT RightHandMiddle3
										{
											OFFSET -3.312172 0.000000 0.000000
											CHANNELS 3 Xrotation Yrotation Zrotation
											End Site
											{
												OFFSET 1.150200 3.080154 0.400270
											}
										}
									}
								}
								JOINT RightHandRing1
								{
									OFFSET -11.514786 -0.013176 -3.003090
									CHANNELS 3 Xrotation Yrotation Zrotation
									JOINT RightHandRing2
									{
										OFFSET -3.053307 0.000000 0.000000
										CHANNELS 3 Xrotation Yrotation Zrotation
										JOINT RightHandRing3
										{
											OFFSET -3.295807 0.000000 0.000000
											CHANNELS 3 Xrotation Yrotation Zrotation
											End Site
											{
												OFFSET 1.281006 3.013344 0.375733
											}
										}
									}
								}
								JOINT RightHandPinky1
								{
									OFFSET -10.518692 -0.960396 -5.730441
									CHANNELS 3 Xrotation Yrotation Zrotation
									JOINT RightHandPinky2
									{
										OFFSET -2.861649 0.000000 0.000000
										CHANNELS 3 Xrotation Yrotation Zrotation
										JOINT RightHandPinky3
										{
											OFFSET -2.863380 0.000000 0.000000
											CHANNELS 3 Xrotation Yrotation Zrotation
											End Site
											{
												OFFSET 0.843597 2.711159 0.369971
											}
										}
									}
								}
							}
							JOINT RSleeve
							{
								OFFSET -6.676277 -0.344902 -1.011730
								CHANNELS 3 Xrotation Yrotation Zrotation
								End Site
								{
									OFFSET 0.000000 14.885353 0.000000
								}
							}
						}
					}
				}
				JOINT Backpack
				{
					OFFSET 0.000000 -2.471497 36.677502
					CHANNELS 3 Xrotation Yrotation Zrotation
					End Site
					{
						OFFSET 0.000000 20.427315 0.000000
					}
				}
				JOINT Hood
				{
					OFFSET 0.000000 18.754097 -10.431000
					CHANNELS 3 Xrotation Yrotation Zrotation
					JOINT Hood1
					{
						OFFSET 0.000000 -5.011002 -7.685901
						CHANNELS 3 Xrotation Yrotation Zrotation
						End Site
						{
							OFFSET 0.000000 9.175140 0.000000
						}
					}
				}
				JOINT LHoodieString
				{
					OFFSET 5.250500 16.397697 3.089900
					CHANNELS 3 Xrotation Yrotation Zrotation
					JOINT LHoodieString1
					{
						OFFSET 0.257700 -6.364304 3.694600
						CHANNELS 3 Xrotation Yrotation Zrotation
						JOINT LHoodieString2
						{
							OFFSET 0.000000 -9.643799 2.679100
							CHANNELS 3 Xrotation Yrotation Zrotation
							End Site
							{
								OFFSET 0.000000 10.009018 0.000000
							}
						}
					}
				}
				JOINT RHoodieString
				{
					OFFSET -5.250500 16.397697 3.089900
					CHANNELS 3 Xrotation Yrotation Zrotation
					JOINT RHoodieString1
					{
						OFFSET -0.257700 -6.364304 3.694600
						CHANNELS 3 Xrotation Yrotation Zrotation
						JOINT RHoodieString2
						{
							OFFSET 0.000000 -9.643799 2.679100
							CHANNELS 3 Xrotation Yrotation Zrotation
							End Site
							{
								OFFSET 0.000000 10.009018 0.000000
							}
						}
					}
				}
			}
			JOINT LBackpack_Strap
			{
				OFFSET 15.223200 -7.719803 -6.610900
				CHANNELS 3 Xrotation Yrotation Zrotation
				End Site
				{
					OFFSET 0.000000 16.040596 0.000000
				}
			}
			JOINT RBackpack_Strap
			{
				OFFSET -15.223000 -7.719803 -6.610900
				CHANNELS 3 Xrotation Yrotation Zrotation
				End Site
				{
					OFFSET 0.000000 16.040596 0.000000
				}
			}
		}
	}
	JOINT BoyFacialAnim_Joint
	{
		OFFSET 1.000000 -82.208099 -1.550900
		CHANNELS 3 Xrotation Yrotation Zrotation
		End Site
		{
			OFFSET 0.000000 30.012791 0.000000
		}
	}
}
MOTION
Frames: 4
Frame Time: 0.033333
0.162571 45.601097 -0.442986 22.800018 -24.881032 13.814751 -0.000001 -0.000001 -0.000000 -91.493464 -43.270625 32.278559 88.521451 -17.780319 -40.864803 -8.529930 -7.230217 -9.319170 -0.000000 -0.000001 0.000000 -0.000000 -0.000001 0.000000 -0.000000 -0.000001 0.000000 -93.986436 23.779876 -6.539992 129.884803 9.682976 -0.113819 -23.937557 -2.377597 11.360079 -0.000000 0.000000 0.000000 -0.000000 0.000000 0.000000 -0.000003 0.000001 0.000001 7.546832 -2.416039 -1.399427 1.066956 -5.158341 -3.019538 1.089514 -5.158256 -3.019076 -2.087922 15.989268 10.789202 -15.475634 26.141909 -6.161021 0.000001 -0.000000 -0.000000 0.000001 -0.000000 -0.000000 0.000001 -0.000000 -0.000000 1.711872 -21.506189 2.052586 -15.077760 -14.165599 -7.607653 -0.074105 -43.146687 -0.133815 -8.770311 -3.821562 17.924715 2.088568 -8.345629 8.780230 1.270816 19.900212 -2.439526 -0.000001 -0.000002 0.000000 13.583019 -0.627069 9.837231 -0.167540 0.303453 -31.105648 -0.000001 0.000003 -0.000001 8.282174 -0.910929 -1.396497 0.231436 0.661082 -29.901957 0.000003 -0.000003 -0.000000 5.872256 2.752284 -17.088635 0.047123 0.322436 -30.125478 -0.000000 -0.000002 -0.000001 -5.673363 7.472878 -14.344253 0.224417 0.276497 -46.588348 0.000002 0.000001 -0.000002 0.000000 0.000001 -0.000001 -0.932230 3.422469 4.725914 -56.640498 -36.483339 21.785672 32.156029 120.314629 -28.385711 -1.835016 15.159214 -9.419015 3.430232 10.444997 -11.189537 0.262942 -17.333886 3.412911 0.000000 0.000000 -0.000002 19.526273 10.885604 -12.443530 -0.118648 -0.322675 18.035567 0.000000 -0.000000 0.000000 4.087737 2.981655 -4.288838 0.349075 -0.461153 26.890400 0.000003 0.000002 0.000000 -7.113541 -10.504851 6.680108 0.111830 -0.089238 26.155851 -0.000000 -0.000001 0.000002 -19.346953 -20.117545 6.525487 0.223808 -0.085839 36.844578 -0.000003 0.000001 0.000002 0.000003 -0.000001 0.000002 -0.000000 0.000001 -0.000001 -0.000000 0.000001 -0.000001 -0.000000 0.000001 -0.000001 -0.000000 0.000001 -0.000001 -0.000000 0.000001 -0.000001 -0.000000 0.000000 0.000002 -0.000000 0.000001 -0.000001 -0.000000 0.000001 -0.000001 -0.000000 0.000000 0.000002 -0.000001 -0.000001 -0.000000 -0.000001 -0.000001 -0.000000 -0.000001 -0.000001 -0.000000 
0.301786 45.631165 -0.429296 22.462665 -25.316665 13.482524 -0.000000 0.000000 0.000000 -90.924796 -43.507642 32.604772 90.292198 -16.040979 -40.231296 -8.687192 -9.495900 -9.784625 -0.000000 0.000000 -0.000000 -0.000000 0.000000 -0.000000 0.000000 -0.000002 0.000001 -92.713889 23.640775 -6.151122 129.672016 11.188874 -0.020834 -25.990760 -4.329165 10.736963 -0.000002 0.000001 -0.000000 -0.000002 0.000001 -0.000000 -0.000003 -0.000000 -0.000002 8.664455 -2.169984 -1.106175 1.305322 -5.129001 -2.919367 1.180497 -5.083004 -2.979631 -2.016505 15.297290 10.863335 -16.262643 24.971747 -6.424139 0.000002 0.000000 -0.000000 0.000002 0.000000 -0.000000 0.000002 0.000000 -0.000000 1.566927 -21.650803 2.005369 -15.434185 -14.791637 -7.049300 -0.073983 -43.260905 -0.133774 -9.471922 -3.423063 17.926566 2.088567 -8.345628 8.780232 1.327687 20.066442 -2.371466 -0.000000 -0.000001 0.000000 13.583409 -0.628170 9.665659 -0.167359 0.303649 -31.258593 -0.000000 -0.000002 -0.000002 8.278327 -0.908371 -1.590474 0.231863 0.661934 -30.073610 0.000006 -0.000004 -0.000004 5.871098 2.753832 -17.309429 0.047700 0.323378 -30.319510 -0.000000 0.000001 -0.000002 -5.666337 7.470758 -14.598887 0.225212 0.277334 -46.809298 0.000001 0.000003 0.000002 0.000001 0.000003 0.000003 -0.756519 3.686421 4.803579 -57.681842 -35.803134 21.234785 31.909647 120.525409 -28.125331 -1.993397 14.914048 -8.928529 3.430235 10.445000 -11.189533 0.313154 -17.473873 3.353554 0.000000 -0.000002 -0.000002 19.519379 10.878985 -12.222126 -0.118470 -0.322838 18.237163 -0.000001 0.000001 0.000002 4.086206 2.976002 -4.043600 0.349432 -0.462472 27.112041 0.000000 0.000001 0.000002 -7.100234 -10.500018 6.953807 0.112410 -0.090729 26.400862 -0.000000 -0.000004 0.000001 -19.321541 -20.103873 6.835993 0.224480 -0.087135 37.117352 0.000001 -0.000002 -0.000000 0.000001 0.000002 -0.000002 0.000001 -0.000002 0.000001 0.000001 -0.000002 0.000001 0.000001 -0.000002 0.000001 0.000001 -0.000002 0.000001 0.000001 -0.000002 0.000002 -0.000001 -0.000002 0.000003 0.000001 -0.000002 0.000001 0.000001 -0.000002 0.000002 -0.000001 -0.000002 0.000003 -0.000000 -0.000002 0.000001 -0.000000 -0.000002 0.000001 -0.000000 0.000000 0.000000 
0.640654 45.762619 -0.372257 22.061210 -26.320049 12.999362 0.000001 0.000000 0.000001 -89.926312 -43.956471 33.110770 90.975162 -15.702405 -40.060999 -8.995383 -9.626504 -9.830782 -0.000000 -0.000000 0.000000 -0.000000 -0.000000 0.000000 -0.000000 0.000004 -0.000000 -90.001874 23.216375 -6.099172 128.902308 10.885593 -0.048742 -30.643948 -4.756198 10.605150 0.000002 -0.000002 0.000000 0.000002 -0.000002 0.000000 0.000000 0.000001 0.000001 9.956672 -1.894316 -0.395648 1.565847 -5.103953 -2.860781 1.355280 -4.941140 -2.955351 -1.654028 13.044946 10.827960 -17.147682 22.194806 -6.292278 0.000000 0.000000 0.000000 0.000000 0.000000 0.000000 0.000000 0.000000 0.000000 1.400192 -22.027020 1.908444 -15.855852 -15.161072 -6.281480 -0.073826 -43.585114 -0.133722 -11.347978 -2.357185 17.983267 2.088569 -8.345629 8.780233 1.486452 20.533287 -2.180841 -0.000001 -0.000001 0.000000 13.584683 -0.631264 9.179786 -0.166935 0.304046 -31.693184 -0.000000 -0.000002 -0.000004 8.267509 -0.900971 -2.137484 0.233057 0.664441 -30.559629 0.000003 -0.000002 -0.000004 5.867619 2.758236 -17.929368 0.049373 0.326173 -30.866475 0.000001 0.000001 -0.000005 -5.648162 7.465364 -15.309650 0.227267 0.279482 -47.429561 -0.000001 -0.000001 -0.000000 -0.000001 -0.000001 -0.000001 -0.607820 4.446447 4.779199 -58.459487 -34.291170 20.481613 31.773675 120.661166 -28.022857 -2.406132 14.237192 -7.584289 3.430233 10.445001 -11.189538 0.454562 -17.869904 3.186260 -0.000001 -0.000001 -0.000002 19.500950 10.860831 -11.592987 -0.118028 -0.323306 18.811731 -0.000001 -0.000001 0.000003 4.081679 2.960291 -3.348685 0.350337 -0.465925 27.741966 0.000001 0.000002 0.000000 -7.064951 -10.486784 7.726339 0.114103 -0.094892 27.095342 -0.000002 0.000003 -0.000001 -19.254218 -20.066836 7.708538 0.226314 -0.090538 37.887695 -0.000003 0.000000 -0.000001 0.000000 -0.000004 -0.000001 0.000002 -0.000002 -0.000000 0.000002 -0.000002 -0.000000 0.000002 -0.000002 -0.000000 0.000002 -0.000002 -0.000000 0.000002 -0.000002 0.000003 -0.000002 0.000000 0.000001 0.000002 -0.000002 -0.000000 0.000002 -0.000002 0.000003 -0.000002 0.000000 0.000001 -0.000001 -0.000000 0.000001 -0.000001 -0.000000 0.000001 0.000001 0.000000 0.000001 
1.107033 46.078766 -0.260756 21.879335 -27.719390 12.777973 0.000002 0.000001 0.000000 -88.604294 -44.202170 33.702602 90.844699 -16.108637 -40.156461 -9.488576 -8.309149 -9.600593 0.000000 0.000001 -0.000000 0.000000 0.000001 0.000000 0.000000 -0.000002 0.000001 -86.827755 22.829870 -6.136764 127.398492 10.629770 -0.085231 -36.148783 -5.195736 10.283576 -0.000000 0.000001 -0.000000 -0.000000 0.000001 -0.000000 0.000000 -0.000001 -0.000002 11.316244 -1.596312 0.456379 1.688187 -5.027015 -2.943686 1.402124 -4.737123 -3.026366 -1.001245 9.627948 10.640460 -18.190737 18.118474 -5.447543 -0.000000 0.000001 0.000000 -0.000000 0.000001 0.000000 -0.000000 0.000001 0.000000 1.293882 -22.552779 1.774693 -16.333530 -15.462179 -5.414267 -0.073291 -44.091999 -0.133534 -14.055793 -0.825567 18.198605 2.088569 -8.345629 8.780230 1.728757 21.253491 -1.888560 -0.000002 -0.000001 0.000001 13.587242 -0.636173 8.422953 -0.166264 0.304682 -32.373136 -0.000001 -0.000000 -0.000002 8.250841 -0.889333 -2.985281 0.235032 0.668181 -31.316561 0.000003 -0.000003 -0.000005 5.861641 2.765847 -18.884462 0.052055 0.330450 -31.714231 -0.000000 0.000001 -0.000002 -5.624863 7.458290 -16.397030 0.230535 0.282726 -48.385268 -0.000001 -0.000000 -0.000002 0.000001 0.000000 -0.000001 -0.521267 5.429591 4.690717 -58.881114 -32.837565 19.440049 31.233516 121.170452 -27.485894 -2.962913 13.206156 -5.591919 3.430232 10.445001 -11.189534 0.672777 -18.486324 2.927407 0.000001 -0.000003 -0.000001 19.475422 10.834131 -10.608481 -0.117347 -0.324135 19.713803 -0.000004 0.000000 0.000002 4.073855 2.936481 -2.265379 0.352087 -0.471471 28.727687 0.000000 -0.000001 0.000005 -7.016238 -10.468149 8.925149 0.116796 -0.101155 28.177913 0.000001 -0.000001 0.000004 -19.162700 -20.013653 9.054315 0.229449 -0.095878 39.083261 0.000002 0.000000 -0.000001 -0.000000 0.000002 -0.000002 -0.000001 -0.000001 0.000002 -0.000001 -0.000001 0.000002 -0.000001 -0.000001 0.000002 -0.000001 -0.000001 0.000002 -0.000001 -0.000001 0.000002 0.000001 0.000002 -0.000001 -0.000001 -0.000001 0.000002 -0.000001 -0.000001 0.000002 0.000001 0.000002 -0.000001 -0.000001 0.000001 -0.000000 -0.000001 0.000001 -0.000000 0.000002 0.000001 0.000000 
